PathFileType	4	(X/Y/Z)	Patient4_TMGait_0pt6_01_right_24.trc.trc
DataRate	CameraRate	NumFrames	NumMarkers	Units	OrigDataRate	OrigDataStartFrame	OrigNumFrames
82.840236686391	82.840236686391	4	33	mm	82.840236686391	1	       141
Frame#	Time	Sacral			L.Shoulder			Chest			R.Shoulder			Neck			R.ASIS			L.ASIS			R.Thigh.Superior			R.Thigh.Lateral			R.Thigh.Inferior			R.Patella			L.Thigh.Superior			L.Thigh.Lateral			L.Thigh.Inferior			L.Patella			L.Shank.Superior			L.Shank.Lateral			L.Shank.Inferior			R.Shank.Superior			R.Shank.Lateral			R.Shank.Inferior			R.Heel			R.Midfoot.Superior			R.Midfoot.Lateral			R.Toe			L.Heel			L.Midfoot.Lateral			L.Midfoot.Superior			L.Toe			L.Elbow			L.Wrist			R.Elbow			R.Wrist			
		X1	Y1	Z1	X2	Y2	Z2	X3	Y3	Z3	X4	Y4	Z4	X5	Y5	Z5	X6	Y6	Z6	X7	Y7	Z7	X8	Y8	Z8	X9	Y9	Z9	X10	Y10	Z10	X11	Y11	Z11	X12	Y12	Z12	X13	Y13	Z13	X14	Y14	Z14	X15	Y15	Z15	X16	Y16	Z16	X17	Y17	Z17	X18	Y18	Z18	X19	Y19	Z19	X20	Y20	Z20	X21	Y21	Z21	X22	Y22	Z22	X23	Y23	Z23	X24	Y24	Z24	X25	Y25	Z25	X26	Y26	Z26	X27	Y27	Z27	X28	Y28	Z28	X29	Y29	Z29	X30	Y30	Z30	X31	Y31	Z31	X32	Y32	Z32	X33	Y33	Z33	

1	28.620000000000	643.675652578680	1007.783986843008	474.573233729405	789.480223305672	1440.944404681741	293.039200985421	903.919393919991	1376.959269096081	447.865209803587	825.491915345872	1441.810035892803	626.971662218532	781.480737277044	1500.848876447839	447.248075709101	873.607667709383	948.459998739569	585.883153345963	854.884231628047	969.791313323312	312.096589053442	953.222384459677	773.343200979386	553.287178706021	911.703447093539	652.713797596265	626.258604898400	999.569779424465	611.395823781764	545.269907832950	1013.765684848826	494.562285432133	566.716096453076	902.392171949387	752.005493018842	340.834553868392	805.991851791127	637.732714448166	291.039235495933	889.271101900147	558.840983553721	352.576476241585	887.573436968685	490.364355034635	365.879652983264	862.577306052856	418.814730356008	361.115675216736	773.441229066165	301.845783762368	317.387879763831	826.961899258399	194.087454751612	391.722854159892	930.305736909370	425.810630250651	573.590225796309	804.943608068443	399.526688255278	633.073802025129	779.483477369168	292.882865382868	584.089326003171	575.722236801943	258.842661281254	554.523370918962	731.285156572199	170.948932489253	593.824680618688	622.108679196371	185.738101803484	624.709054705334	776.226550531050	47.959427080231	613.625788795436	700.572153733846	38.041916855294	443.137455000766	772.448739959353	35.381748959229	360.385793533694	856.984395464986	95.941642202146	384.197660666360	984.448956641971	41.774353047312	353.137003593960	813.091582512919	1089.028812918716	164.173560291037	966.792611344021	877.995788186629	146.373974711007	807.703770358838	1088.354946360412	735.904238360890	885.242898558398	837.964142537185	729.257372654795	
2	28.632071428571	642.909294715557	1008.383770903524	473.543256870941	790.212704883732	1442.020219032751	292.366812499596	903.534425418229	1377.526914980669	447.766122280841	824.075768348603	1442.195676859218	626.433069182885	781.440999513446	1501.546452222415	446.648395021877	872.706471831533	949.428518030791	585.218350214270	854.877467720902	970.505976146905	311.292852843835	954.618972371852	776.811690026023	552.861570950157	915.306799294734	655.700871805784	626.135623550718	1003.767183051787	615.847043420016	545.126888683213	1020.383322485780	499.724652994169	566.657868649261	899.017121712405	751.356278529613	340.613096577057	801.086130186236	638.193493076903	290.361496588272	883.086880468796	558.325755307584	351.907817107415	880.451645663238	490.054963930971	365.164200147072	855.438803206882	418.858201001473	360.339773762357	765.712944895399	302.160591067385	316.866547968112	819.368979477794	194.294189999179	391.179124258624	938.936517014366	429.020981192455	573.210152159465	814.479457425615	398.513363292060	632.048403720489	792.768366174593	291.247221416689	582.760332391039	590.370784808141	249.905821044049	552.438921964145	748.848213251553	168.413983349894	592.383458176214	639.323096676385	179.115530417246	623.001343685625	798.438843259999	47.569272341666	612.922112645252	692.781298335178	38.167249191750	443.000357406587	764.763228852871	35.374462332107	360.275581639528	849.354060104131	95.990008361480	383.906145840147	976.744914151237	41.726519984823	353.073423580578	820.013633855311	1091.857843137643	161.655459065051	982.353481070445	888.146511017448	143.714487057307	796.218443087546	1090.234318921019	735.012184910629	860.689707048576	837.220152218633	728.468348647410	
3	28.644142857143	642.149001555845	1008.953381991145	472.557047037683	790.949601756451	1443.054739456192	291.722577232867	903.165612098760	1378.051716764261	447.684131723663	822.699750274186	1442.559629532037	625.914667843832	781.412333219228	1502.208635459892	446.072382846619	871.807238670849	950.355118360427	584.565692046862	854.805980870516	971.162575095639	310.517838303147	955.936416434394	780.185838519208	552.438128899187	918.794689853303	658.602685119442	626.017434495134	1007.814330909674	620.179271005318	544.979409459346	1026.784347834441	504.787750224378	566.606975721127	895.667339343030	750.698759729209	340.420770695257	796.224993130682	638.638100501976	289.705029352589	876.952447938208	557.806887797325	351.268201614850	873.396648176748	489.752971386742	364.474130448993	848.363191262700	418.895206082786	359.595348547897	758.065423692957	302.461150025002	316.362801562262	811.851300886439	194.490782238553	390.658128373425	947.395345269431	432.130761929001	572.866564395123	823.876064172633	397.362437578773	631.083723577647	805.966187640588	289.474276394833	581.536239128875	604.988753907068	240.753696496981	550.467208005232	766.362826579005	165.745909481320	591.100260942721	656.498096572305	172.345356094732	621.451012530193	820.615796226818	47.097028291515	612.460946589975	685.079888595293	38.284930029214	442.864476558285	757.158241145118	35.364641956332	360.170796375178	841.801342991434	96.038480079862	383.624577847424	969.122996301766	41.688398366748	353.010927866272	826.771808231165	1094.633340934934	159.198901076756	997.636450928729	898.261158834907	141.152403181150	784.800226614728	1092.169897082298	734.163535195432	836.536031050784	836.690402937605	727.715171454119	
4	28.656214285714	641.398222608430	1009.454222681963	471.649608516215	791.705486115448	1443.993751351680	291.135910302482	902.831836545341	1378.480403488722	447.643178814539	821.400558650734	1442.872768099053	625.439356123641	781.411137432215	1502.790382865182	445.543447232939	870.904397342870	951.186244715578	583.948122581425	854.623044070709	971.702553393754	309.804827233276	957.069067991613	783.337747702028	552.025765559191	922.005354835751	661.301701903004	625.912989364857	1011.512471196515	624.233034447767	544.828091000206	1032.719884273082	509.633779596037	566.568294296986	892.351450010629	750.013342692165	340.282126196634	791.424779226083	639.047986296145	289.088620526411	870.880940617119	557.274718254612	350.684180797600	866.433363973163	489.458110179848	363.830981521127	841.366748263293	418.917906626974	358.908891983908	750.526950723615	302.734672228167	315.890301793403	804.427902609092	194.666704146536	390.180289461193	955.508556126077	435.031235758275	572.594354960957	833.063276595260	395.897263522038	630.255702804664	819.094448482964	287.422427574420	580.518078706350	619.754867600356	231.102433165201	548.731186308562	783.943367118679	162.839961527729	590.124433836494	673.805886801081	165.256241002605	620.217602348989	842.909218505214	46.566655582915	612.457376972879	677.497249603699	38.387561533664	442.733383075867	749.654779335102	35.350302206500	360.076050163531	834.344989056645	96.086331162000	383.362788642813	961.605215149489	41.669401299657	352.951740813623	833.234405232892	1097.295502484136	156.860479340725	1012.407478588205	908.346869945376	138.792479080459	773.492249945811	1094.226826484309	733.389258233381	813.097764897162	836.585907403807	727.043848169868	
